<svg width="80" height="80" viewBox="0 0 107 92" fill="none" xmlns="http://www.w3.org/2000/svg">
    <path
        d="M42.8064 63.9988H30.5813C28.9602 63.9988 27.4054 63.273 26.2591 61.9811C25.1127 60.6893 24.4688 58.9371 24.4688 57.1101V8.88876C24.4688 7.06175 25.1127 5.30956 26.2591 4.01767C27.4054 2.72578 28.9602 2 30.5813 2H42.8064"
        stroke="#959595" stroke-width="4" stroke-linecap="round" stroke-linejoin="round" />
    <path d="M64.2004 50.2211L79.4818 32.9992L64.2004 15.7773" stroke="#959595" stroke-width="4"
        stroke-linecap="round" stroke-linejoin="round" />
    <path d="M79.4817 32.999H42.8064" stroke="#959595" stroke-width="4" stroke-linecap="round"
        stroke-linejoin="round" />
    <path
        d="M10.5293 86.4824L12.2344 86.9131C11.877 88.3135 11.2324 89.3828 10.3008 90.1211C9.375 90.8535 8.24121 91.2197 6.89941 91.2197C5.51074 91.2197 4.37988 90.9385 3.50684 90.376C2.63965 89.8076 1.97754 88.9873 1.52051 87.915C1.06934 86.8428 0.84375 85.6914 0.84375 84.4609C0.84375 83.1191 1.09863 81.9502 1.6084 80.9541C2.12402 79.9521 2.85352 79.1934 3.79688 78.6777C4.74609 78.1562 5.78906 77.8955 6.92578 77.8955C8.21484 77.8955 9.29883 78.2236 10.1777 78.8799C11.0566 79.5361 11.6689 80.459 12.0146 81.6484L10.3359 82.0439C10.0371 81.1064 9.60352 80.4238 9.03516 79.9961C8.4668 79.5684 7.75195 79.3545 6.89062 79.3545C5.90039 79.3545 5.07129 79.5918 4.40332 80.0664C3.74121 80.541 3.27539 81.1797 3.00586 81.9824C2.73633 82.7793 2.60156 83.6025 2.60156 84.4521C2.60156 85.5479 2.75977 86.5059 3.07617 87.3262C3.39844 88.1406 3.89648 88.75 4.57031 89.1543C5.24414 89.5586 5.97363 89.7607 6.75879 89.7607C7.71387 89.7607 8.52246 89.4854 9.18457 88.9346C9.84668 88.3838 10.2949 87.5664 10.5293 86.4824ZM20.5312 87.9941L22.166 88.1963C21.9082 89.1514 21.4307 89.8926 20.7334 90.4199C20.0361 90.9473 19.1455 91.2109 18.0615 91.2109C16.6963 91.2109 15.6123 90.792 14.8096 89.9541C14.0127 89.1104 13.6143 87.9297 13.6143 86.4121C13.6143 84.8418 14.0186 83.623 14.8271 82.7559C15.6357 81.8887 16.6846 81.4551 17.9736 81.4551C19.2217 81.4551 20.2412 81.8799 21.0322 82.7295C21.8232 83.5791 22.2188 84.7744 22.2188 86.3154C22.2188 86.4092 22.2158 86.5498 22.21 86.7373H15.249C15.3076 87.7627 15.5977 88.5479 16.1191 89.0928C16.6406 89.6377 17.291 89.9102 18.0703 89.9102C18.6504 89.9102 19.1455 89.7578 19.5557 89.4531C19.9658 89.1484 20.291 88.6621 20.5312 87.9941ZM15.3369 85.4365H20.5488C20.4785 84.6514 20.2793 84.0625 19.9512 83.6699C19.4473 83.0605 18.7939 82.7559 17.9912 82.7559C17.2646 82.7559 16.6523 82.999 16.1543 83.4854C15.6621 83.9717 15.3896 84.6221 15.3369 85.4365ZM24.1436 91V81.666H25.5674V83.0811C25.9307 82.4189 26.2646 81.9824 26.5693 81.7715C26.8799 81.5605 27.2197 81.4551 27.5889 81.4551C28.1221 81.4551 28.6641 81.625 29.2148 81.9648L28.6699 83.4326C28.2832 83.2041 27.8965 83.0898 27.5098 83.0898C27.1641 83.0898 26.8535 83.1953 26.5781 83.4062C26.3027 83.6113 26.1064 83.8984 25.9893 84.2676C25.8135 84.8301 25.7256 85.4453 25.7256 86.1133V91H24.1436ZM30.1377 91V81.666H31.5615V83.0811C31.9248 82.4189 32.2588 81.9824 32.5635 81.7715C32.874 81.5605 33.2139 81.4551 33.583 81.4551C34.1162 81.4551 34.6582 81.625 35.209 81.9648L34.6641 83.4326C34.2773 83.2041 33.8906 83.0898 33.5039 83.0898C33.1582 83.0898 32.8477 83.1953 32.5723 83.4062C32.2969 83.6113 32.1006 83.8984 31.9834 84.2676C31.8076 84.8301 31.7197 85.4453 31.7197 86.1133V91H30.1377ZM42.2402 89.8486C41.6543 90.3467 41.0889 90.6982 40.5439 90.9033C40.0049 91.1084 39.4248 91.2109 38.8037 91.2109C37.7783 91.2109 36.9902 90.9619 36.4395 90.4639C35.8887 89.96 35.6133 89.3184 35.6133 88.5391C35.6133 88.082 35.7158 87.666 35.9209 87.291C36.1318 86.9102 36.4043 86.6055 36.7383 86.377C37.0781 86.1484 37.459 85.9756 37.8809 85.8584C38.1914 85.7764 38.6602 85.6973 39.2871 85.6211C40.5645 85.4688 41.5049 85.2871 42.1084 85.0762C42.1143 84.8594 42.1172 84.7217 42.1172 84.6631C42.1172 84.0186 41.9678 83.5645 41.6689 83.3008C41.2646 82.9434 40.6641 82.7646 39.8672 82.7646C39.123 82.7646 38.5723 82.8965 38.2148 83.1602C37.8633 83.418 37.6025 83.8779 37.4326 84.54L35.8857 84.3291C36.0264 83.667 36.2578 83.1338 36.5801 82.7295C36.9023 82.3193 37.3682 82.0059 37.9775 81.7891C38.5869 81.5664 39.293 81.4551 40.0957 81.4551C40.8926 81.4551 41.54 81.5488 42.0381 81.7363C42.5361 81.9238 42.9023 82.1611 43.1367 82.4482C43.3711 82.7295 43.5352 83.0869 43.6289 83.5205C43.6816 83.79 43.708 84.2764 43.708 84.9795V87.0889C43.708 88.5596 43.7402 89.4912 43.8047 89.8838C43.875 90.2705 44.0098 90.6426 44.209 91H42.5566C42.3926 90.6719 42.2871 90.2881 42.2402 89.8486ZM42.1084 86.3154C41.5342 86.5498 40.6729 86.749 39.5244 86.9131C38.874 87.0068 38.4141 87.1123 38.1445 87.2295C37.875 87.3467 37.667 87.5195 37.5205 87.748C37.374 87.9707 37.3008 88.2197 37.3008 88.4951C37.3008 88.917 37.459 89.2686 37.7754 89.5498C38.0977 89.8311 38.5664 89.9717 39.1816 89.9717C39.791 89.9717 40.333 89.8398 40.8076 89.5762C41.2822 89.3066 41.6309 88.9404 41.8535 88.4775C42.0234 88.1201 42.1084 87.5928 42.1084 86.8955V86.3154ZM46.1514 91V81.666H47.5752V83.0811C47.9385 82.4189 48.2725 81.9824 48.5771 81.7715C48.8877 81.5605 49.2275 81.4551 49.5967 81.4551C50.1299 81.4551 50.6719 81.625 51.2227 81.9648L50.6777 83.4326C50.291 83.2041 49.9043 83.0898 49.5176 83.0898C49.1719 83.0898 48.8613 83.1953 48.5859 83.4062C48.3105 83.6113 48.1143 83.8984 47.9971 84.2676C47.8213 84.8301 47.7334 85.4453 47.7334 86.1133V91H46.1514ZM56.54 88.2139L58.1045 87.9678C58.1924 88.5947 58.4355 89.0752 58.834 89.4092C59.2383 89.7432 59.8008 89.9102 60.5215 89.9102C61.248 89.9102 61.7871 89.7637 62.1387 89.4707C62.4902 89.1719 62.666 88.8232 62.666 88.4248C62.666 88.0674 62.5107 87.7861 62.2002 87.5811C61.9834 87.4404 61.4443 87.2617 60.583 87.0449C59.4229 86.752 58.6172 86.5 58.166 86.2891C57.7207 86.0723 57.3809 85.7764 57.1465 85.4014C56.918 85.0205 56.8037 84.6016 56.8037 84.1445C56.8037 83.7285 56.8975 83.3447 57.085 82.9932C57.2783 82.6357 57.5391 82.3398 57.8672 82.1055C58.1133 81.9238 58.4473 81.7715 58.8691 81.6484C59.2969 81.5195 59.7539 81.4551 60.2402 81.4551C60.9727 81.4551 61.6143 81.5605 62.165 81.7715C62.7217 81.9824 63.1318 82.2695 63.3955 82.6328C63.6592 82.9902 63.8408 83.4707 63.9404 84.0742L62.3936 84.2852C62.3232 83.8047 62.1182 83.4297 61.7783 83.1602C61.4443 82.8906 60.9697 82.7559 60.3545 82.7559C59.6279 82.7559 59.1094 82.876 58.7988 83.1162C58.4883 83.3564 58.333 83.6377 58.333 83.96C58.333 84.165 58.3975 84.3496 58.5264 84.5137C58.6553 84.6836 58.8574 84.8242 59.1328 84.9355C59.291 84.9941 59.7568 85.1289 60.5303 85.3398C61.6494 85.6387 62.4287 85.8848 62.8682 86.0781C63.3135 86.2656 63.6621 86.541 63.9141 86.9043C64.166 87.2676 64.292 87.7188 64.292 88.2578C64.292 88.7852 64.1367 89.2832 63.8262 89.752C63.5215 90.2148 63.0791 90.5752 62.499 90.833C61.9189 91.085 61.2627 91.2109 60.5303 91.2109C59.3174 91.2109 58.3916 90.959 57.7529 90.4551C57.1201 89.9512 56.7158 89.2041 56.54 88.2139ZM72.5625 87.9941L74.1973 88.1963C73.9395 89.1514 73.4619 89.8926 72.7646 90.4199C72.0674 90.9473 71.1768 91.2109 70.0928 91.2109C68.7275 91.2109 67.6436 90.792 66.8408 89.9541C66.0439 89.1104 65.6455 87.9297 65.6455 86.4121C65.6455 84.8418 66.0498 83.623 66.8584 82.7559C67.667 81.8887 68.7158 81.4551 70.0049 81.4551C71.2529 81.4551 72.2725 81.8799 73.0635 82.7295C73.8545 83.5791 74.25 84.7744 74.25 86.3154C74.25 86.4092 74.2471 86.5498 74.2412 86.7373H67.2803C67.3389 87.7627 67.6289 88.5479 68.1504 89.0928C68.6719 89.6377 69.3223 89.9102 70.1016 89.9102C70.6816 89.9102 71.1768 89.7578 71.5869 89.4531C71.9971 89.1484 72.3223 88.6621 72.5625 87.9941ZM67.3682 85.4365H72.5801C72.5098 84.6514 72.3105 84.0625 71.9824 83.6699C71.4785 83.0605 70.8252 82.7559 70.0225 82.7559C69.2959 82.7559 68.6836 82.999 68.1855 83.4854C67.6934 83.9717 67.4209 84.6221 67.3682 85.4365ZM75.5596 88.2139L77.124 87.9678C77.2119 88.5947 77.4551 89.0752 77.8535 89.4092C78.2578 89.7432 78.8203 89.9102 79.541 89.9102C80.2676 89.9102 80.8066 89.7637 81.1582 89.4707C81.5098 89.1719 81.6855 88.8232 81.6855 88.4248C81.6855 88.0674 81.5303 87.7861 81.2197 87.5811C81.0029 87.4404 80.4639 87.2617 79.6025 87.0449C78.4424 86.752 77.6367 86.5 77.1855 86.2891C76.7402 86.0723 76.4004 85.7764 76.166 85.4014C75.9375 85.0205 75.8232 84.6016 75.8232 84.1445C75.8232 83.7285 75.917 83.3447 76.1045 82.9932C76.2979 82.6357 76.5586 82.3398 76.8867 82.1055C77.1328 81.9238 77.4668 81.7715 77.8887 81.6484C78.3164 81.5195 78.7734 81.4551 79.2598 81.4551C79.9922 81.4551 80.6338 81.5605 81.1846 81.7715C81.7412 81.9824 82.1514 82.2695 82.415 82.6328C82.6787 82.9902 82.8604 83.4707 82.96 84.0742L81.4131 84.2852C81.3428 83.8047 81.1377 83.4297 80.7979 83.1602C80.4639 82.8906 79.9893 82.7559 79.374 82.7559C78.6475 82.7559 78.1289 82.876 77.8184 83.1162C77.5078 83.3564 77.3525 83.6377 77.3525 83.96C77.3525 84.165 77.417 84.3496 77.5459 84.5137C77.6748 84.6836 77.877 84.8242 78.1523 84.9355C78.3105 84.9941 78.7764 85.1289 79.5498 85.3398C80.6689 85.6387 81.4482 85.8848 81.8877 86.0781C82.333 86.2656 82.6816 86.541 82.9336 86.9043C83.1855 87.2676 83.3115 87.7188 83.3115 88.2578C83.3115 88.7852 83.1562 89.2832 82.8457 89.752C82.541 90.2148 82.0986 90.5752 81.5186 90.833C80.9385 91.085 80.2822 91.2109 79.5498 91.2109C78.3369 91.2109 77.4111 90.959 76.7725 90.4551C76.1396 89.9512 75.7354 89.2041 75.5596 88.2139ZM85.2012 79.9346V78.1152H86.7832V79.9346H85.2012ZM85.2012 91V81.666H86.7832V91H85.2012ZM88.6113 86.333C88.6113 84.6045 89.0918 83.3242 90.0527 82.4922C90.8555 81.8008 91.834 81.4551 92.9883 81.4551C94.2715 81.4551 95.3203 81.877 96.1348 82.7207C96.9492 83.5586 97.3564 84.7188 97.3564 86.2012C97.3564 87.4023 97.1748 88.3486 96.8115 89.04C96.4541 89.7256 95.9297 90.2588 95.2383 90.6396C94.5527 91.0205 93.8027 91.2109 92.9883 91.2109C91.6816 91.2109 90.624 90.792 89.8154 89.9541C89.0127 89.1162 88.6113 87.9092 88.6113 86.333ZM90.2373 86.333C90.2373 87.5283 90.498 88.4248 91.0195 89.0225C91.541 89.6143 92.1973 89.9102 92.9883 89.9102C93.7734 89.9102 94.4268 89.6113 94.9482 89.0137C95.4697 88.416 95.7305 87.5049 95.7305 86.2803C95.7305 85.126 95.4668 84.2529 94.9395 83.6611C94.418 83.0635 93.7676 82.7646 92.9883 82.7646C92.1973 82.7646 91.541 83.0605 91.0195 83.6523C90.498 84.2441 90.2373 85.1377 90.2373 86.333ZM92.1094 80.5059L93.2783 78.0449H95.3525L93.4189 80.5059H92.1094ZM99.2197 91V81.666H100.644V82.9932C101.329 81.9678 102.319 81.4551 103.614 81.4551C104.177 81.4551 104.692 81.5576 105.161 81.7627C105.636 81.9619 105.99 82.2256 106.225 82.5537C106.459 82.8818 106.623 83.2715 106.717 83.7227C106.775 84.0156 106.805 84.5283 106.805 85.2607V91H105.223V85.3223C105.223 84.6777 105.161 84.1973 105.038 83.8809C104.915 83.5586 104.695 83.3037 104.379 83.1162C104.068 82.9229 103.702 82.8262 103.28 82.8262C102.606 82.8262 102.023 83.04 101.531 83.4678C101.045 83.8955 100.802 84.707 100.802 85.9023V91H99.2197Z"
        fill="#959595" />
</svg>
    