<svg width="289" height="289" viewBox="0 0 289 289" fill="none" xmlns="http://www.w3.org/2000/svg">
    <g clip-path="url(#clip0_1_3385)">
        <path
            d="M144.5 289C224.305 289 289 224.305 289 144.5C289 64.6949 224.305 0 144.5 0C64.6949 0 0 64.6949 0 144.5C0 224.305 64.6949 289 144.5 289Z"
            fill="#D14995" />
        <path
            d="M144.478 289H144.5C147.912 288.999 151.323 288.876 154.726 288.633C159.528 288.294 164.31 287.716 169.054 286.899C173.802 286.075 178.506 285.014 183.148 283.72C187.793 282.438 192.371 280.925 196.865 279.185C201.351 277.438 205.747 275.469 210.036 273.283C214.329 271.096 218.51 268.696 222.563 266.091C226.617 263.491 230.538 260.691 234.312 257.699C238.089 254.703 241.713 251.52 245.172 248.162C248.629 244.805 251.916 241.277 255.02 237.591C258.122 233.905 261.038 230.065 263.757 226.087C266.48 222.11 269.003 218 271.315 213.771C273.628 209.544 275.728 205.203 277.607 200.766C279.48 196.331 281.131 191.805 282.553 187.205C283.972 182.599 285.159 177.925 286.11 173.2C286.965 168.919 287.625 164.602 288.089 160.262L200.077 72.2501C200.077 70.7761 199.491 69.3625 198.449 68.3202C197.407 67.2779 195.993 66.6924 194.519 66.6924H94.4808C93.0068 66.6924 91.5931 67.2779 90.5509 68.3202C89.5086 69.3625 88.9231 70.7761 88.9231 72.2501V100.039H72.25C63.1131 100.039 55.5769 107.575 55.5769 116.712V183.404C55.5769 187.972 57.4665 192.141 60.4788 195.175L100.038 234.724V244.561L144.478 289Z"
            fill="#A31464" />
        <path opacity="0.98"
            d="M94.4808 66.6924C93.0068 66.6924 91.5931 67.2779 90.5509 68.3202C89.5086 69.3625 88.9231 70.7761 88.9231 72.2501V100.039H72.25C63.1131 100.039 55.5769 107.575 55.5769 116.712V183.404C55.5769 192.541 63.1131 200.077 72.25 200.077H100.038V244.561H188.962V200.077H216.75C225.887 200.077 233.423 192.541 233.423 183.404V116.712C233.423 107.575 225.887 100.039 216.75 100.039H200.077V72.2501C200.077 70.7761 199.491 69.3625 198.449 68.3202C197.407 67.2779 195.993 66.6924 194.519 66.6924H94.4808ZM100.038 77.8078H188.962V100.039H100.038V77.8078ZM72.25 111.154H216.75C219.929 111.154 222.308 113.533 222.308 116.712V183.404C222.308 186.583 219.929 188.962 216.75 188.962H188.962V177.846H211.192V144.522H77.7854V177.846H100.038V188.962H72.25C71.5151 188.98 70.7842 188.849 70.1017 188.576C69.4191 188.303 68.7991 187.894 68.2794 187.375C67.7596 186.855 67.3509 186.235 67.0781 185.552C66.8052 184.87 66.674 184.139 66.6923 183.404V116.712C66.6923 113.533 69.071 111.154 72.25 111.154ZM88.9231 122.269V133.385H133.385V122.269H88.9231ZM194.519 122.269C193.045 122.269 191.632 122.855 190.589 123.897C189.547 124.939 188.962 126.353 188.962 127.827C188.962 129.301 189.547 130.715 190.589 131.757C191.632 132.799 193.045 133.385 194.519 133.385C195.993 133.385 197.407 132.799 198.449 131.757C199.491 130.715 200.077 129.301 200.077 127.827C200.077 126.353 199.491 124.939 198.449 123.897C197.407 122.855 195.993 122.269 194.519 122.269ZM88.9231 155.615H200.077V166.731H88.9231V155.615ZM111.154 177.846H177.868V233.423H111.154V177.846ZM133.385 188.962V200.077H166.731V188.962H133.385ZM133.385 211.192V222.308H166.731V211.192H133.385Z"
            fill="white" />
    </g>
    <defs>
        <clipPath id="clip0_1_3385">
            <rect width="289" height="289" fill="white" />
        </clipPath>
    </defs>
</svg>
    