<svg width="402" height="173" viewBox="0 0 402 173" fill="none" xmlns="http://www.w3.org/2000/svg">
<rect x="2.5" y="2.5" width="397" height="168" rx="2.5" fill="white" stroke="#CE9A96" stroke-width="5"/>
<path d="M102.253 76.5254H109.196L114.03 91.9795L118.791 76.5254H125.529L117.561 98H110.368L102.253 76.5254ZM125.866 87.2773C125.866 83.7715 126.843 81.042 128.796 79.0889C130.749 77.1357 133.469 76.1592 136.955 76.1592C140.529 76.1592 143.283 77.1211 145.217 79.0449C147.15 80.959 148.117 83.6445 148.117 87.1016C148.117 89.6113 147.692 91.6719 146.843 93.2832C146.003 94.8848 144.782 96.1348 143.181 97.0332C141.589 97.9219 139.602 98.3662 137.219 98.3662C134.797 98.3662 132.79 97.9805 131.198 97.209C129.616 96.4375 128.332 95.2168 127.346 93.5469C126.359 91.877 125.866 89.7871 125.866 87.2773ZM132.502 87.3066C132.502 89.4746 132.902 91.0322 133.703 91.9795C134.514 92.9268 135.612 93.4004 136.999 93.4004C138.425 93.4004 139.528 92.9365 140.31 92.0088C141.091 91.0811 141.481 89.416 141.481 87.0137C141.481 84.9922 141.071 83.5176 140.251 82.5898C139.44 81.6523 138.337 81.1836 136.94 81.1836C135.603 81.1836 134.528 81.6572 133.718 82.6045C132.907 83.5518 132.502 85.1191 132.502 87.3066ZM149.392 76.5254H169.562V81.8281H162.795V98H156.159V81.8281H149.392V76.5254ZM170.72 87.2773C170.72 83.7715 171.696 81.042 173.649 79.0889C175.603 77.1357 178.322 76.1592 181.809 76.1592C185.383 76.1592 188.137 77.1211 190.07 79.0449C192.004 80.959 192.971 83.6445 192.971 87.1016C192.971 89.6113 192.546 91.6719 191.696 93.2832C190.856 94.8848 189.636 96.1348 188.034 97.0332C186.442 97.9219 184.455 98.3662 182.072 98.3662C179.65 98.3662 177.644 97.9805 176.052 97.209C174.47 96.4375 173.186 95.2168 172.199 93.5469C171.213 91.877 170.72 89.7871 170.72 87.2773ZM177.355 87.3066C177.355 89.4746 177.756 91.0322 178.557 91.9795C179.367 92.9268 180.466 93.4004 181.853 93.4004C183.278 93.4004 184.382 92.9365 185.163 92.0088C185.944 91.0811 186.335 89.416 186.335 87.0137C186.335 84.9922 185.925 83.5176 185.104 82.5898C184.294 81.6523 183.19 81.1836 181.794 81.1836C180.456 81.1836 179.382 81.6572 178.571 82.6045C177.761 83.5518 177.355 85.1191 177.355 87.3066ZM206.608 76.5254H212.805L220.891 88.4053V76.5254H227.146V98H220.891L212.849 86.208V98H206.608V76.5254ZM245.529 76.5254H252.15V89.3281C252.15 90.5977 251.95 91.7988 251.55 92.9316C251.159 94.0547 250.539 95.041 249.689 95.8906C248.85 96.7305 247.966 97.3213 247.038 97.6631C245.749 98.1416 244.201 98.3809 242.395 98.3809C241.35 98.3809 240.207 98.3076 238.967 98.1611C237.736 98.0146 236.706 97.7266 235.876 97.2969C235.046 96.8574 234.284 96.2373 233.591 95.4365C232.907 94.6357 232.438 93.8105 232.185 92.9609C231.774 91.5938 231.569 90.3828 231.569 89.3281V76.5254H238.19V89.6357C238.19 90.8076 238.513 91.7256 239.157 92.3896C239.812 93.0439 240.715 93.3711 241.867 93.3711C243.01 93.3711 243.903 93.0488 244.548 92.4043C245.202 91.75 245.529 90.8271 245.529 89.6357V76.5254ZM256.545 76.5254H263.181V92.7119H273.537V98H256.545V76.5254ZM275.192 87.2773C275.192 83.7715 276.169 81.042 278.122 79.0889C280.075 77.1357 282.795 76.1592 286.281 76.1592C289.855 76.1592 292.609 77.1211 294.543 79.0449C296.477 80.959 297.443 83.6445 297.443 87.1016C297.443 89.6113 297.019 91.6719 296.169 93.2832C295.329 94.8848 294.108 96.1348 292.507 97.0332C290.915 97.9219 288.928 98.3662 286.545 98.3662C284.123 98.3662 282.116 97.9805 280.524 97.209C278.942 96.4375 277.658 95.2168 276.672 93.5469C275.686 91.877 275.192 89.7871 275.192 87.2773ZM281.828 87.3066C281.828 89.4746 282.229 91.0322 283.029 91.9795C283.84 92.9268 284.938 93.4004 286.325 93.4004C287.751 93.4004 288.854 92.9365 289.636 92.0088C290.417 91.0811 290.808 89.416 290.808 87.0137C290.808 84.9922 290.397 83.5176 289.577 82.5898C288.767 81.6523 287.663 81.1836 286.267 81.1836C284.929 81.1836 283.854 81.6572 283.044 82.6045C282.233 83.5518 281.828 85.1191 281.828 87.3066Z" fill="black"/>
</svg>
